# xmcd
#
# Track frame offsets: 
#        182
#        17487
#        30707
#        44600
#        66212
#        80580
#        101260
#        114165
#        131492
#        145477
#        158637
#        169215
#        184827
#        204060
#
# Disc length: 2904 seconds
#
# Revision: 6
# Processed by: cddbd v1.5.2PL0 Copyright (c) Steve Scherf et al.
# Submitted via: ExactAudioCopy v0.99pb4
#
DISCID=b30b560e
DTITLE=Dwight Yoakam - Tomorrow's Sounds Today
DYEAR=2000
DGENRE=Country
TTITLE0=Love Caught Up To Me
TTITLE1=What Do You Know About Love
TTITLE2=Time Spent Missing You
TTITLE3=Free To Go
TTITLE4=A Promise You Can't Keep
TTITLE5=A Place To Cry
TTITLE6=The Sad Side Of Town
TTITLE7=Dreams Of Clay
TTITLE8=For Love's Sake
TTITLE9=The Heartaches Are Free
TTITLE10=A World Of Blue
TTITLE11=I Want You To Want Me
TTITLE12=Alright, I'm Wrong (Duet With Buck Owens)
TTITLE13=I Was There (Duet With Buck Owens)
EXTD=
EXTT0=
EXTT1=
EXTT2=
EXTT3=
EXTT4=
EXTT5=
EXTT6=
EXTT7=
EXTT8=
EXTT9=
EXTT10=
EXTT11=
EXTT12=
EXTT13=
PLAYORDER=
